<?xml version="1.0" encoding="UTF-8"?><!DOCTYPE svg PUBLIC "-//W3C//DTD SVG 1.1//EN" "http://www.w3.org/Graphics/SVG/1.1/DTD/svg11.dtd"><svg xmlns="http://www.w3.org/2000/svg" xmlns:xlink="http://www.w3.org/1999/xlink" version="1.1" width="24" height="24" viewBox="0 0 24 24"><path d="M10,4C7.79,4 6,5.79 6,8C6,10.21 7.79,12 10,12C12.21,12 14,10.21 14,8C14,5.79 12.21,4 10,4M17.5,13C15,13 13,15 13,17.5C13,20 15,22 17.5,22C20,22 22,20 22,17.5C22,15 20,13 17.5,13M10,14C5.58,14 2,15.79 2,18V20H11.5C7.91,20 11,21.09 11,17.5C11,13.91 8.36,14.14 11.95,14.14C11.32,14.06 10.68,14 10,14M17.5,14.5C19.16,14.5 20.5,15.84 20.5,17.5C20.5,18.06 20.35,18.58 20.08,19L16,14.92C16.42,14.65 16.94,14.5 17.5,14.5M14.92,16L19,20.08C18.58,20.35 18.06,20.5 17.5,20.5C15.84,20.5 14.5,19.16 14.5,17.5C14.5,16.94 14.65,16.42 14.92,16Z" /></svg>