<?xml version="1.0" encoding="utf-8"?>
<!-- Generator: Adobe Illustrator 22.0.0, SVG Export Plug-In . SVG Version: 6.00 Build 0)  -->
<svg version="1.1" id="レイヤー_1" xmlns="http://www.w3.org/2000/svg" xmlns:xlink="http://www.w3.org/1999/xlink" x="0px"
	 y="0px" viewBox="0 0 24 24" style="enable-background:new 0 0 24 24;" xml:space="preserve">
<path d="M15.7,6.3l-5.6,5.6L9,15l3.1-1.1l5.6-5.6L15.7,6.3 M21.2,6.4l-8.4,8.4L9.3,16c-0.5,0.2-1.1-0.1-1.3-0.6
	c-0.1-0.2-0.1-0.5,0-0.7l1.2-3.5l8.4-8.4c0.5-0.5,1.2-0.5,1.7,0l1.9,1.9C21.6,5.2,21.6,5.9,21.2,6.4L21.2,6.4z M18.8,7.3l1.6-1.6
	c0,0,0-0.1,0-0.2l-1.9-1.9c0,0-0.1,0-0.2,0l-1.6,1.6L18.8,7.3z"/>
<path d="M3.8,4.5H11v1.4H3.9v14.3h14.3V13h1.4v7.2c0,0.7-0.6,1.3-1.3,1.3H3.8c-0.7,0-1.3-0.6-1.3-1.3V5.8c0-0.2,0-0.3,0.1-0.5
	C2.8,4.8,3.3,4.5,3.8,4.5"/>
</svg>
