<?xml version="1.0" encoding="utf-8"?>
<!-- Generator: Adobe Illustrator 25.1.0, SVG Export Plug-In . SVG Version: 6.00 Build 0)  -->
<svg version="1.1" id="layer" xmlns="http://www.w3.org/2000/svg" xmlns:xlink="http://www.w3.org/1999/xlink" x="0px" y="0px"
	 viewBox="0 0 24 24" style="enable-background:new 0 0 24 24;" xml:space="preserve">
<path id="path" d="M14.6,9.7c0.2-0.3,0.5-0.4,0.8-0.4c0.6,0,1,0.4,1,1c0,0.3-0.1,0.6-0.4,0.8l3.5,3.5c1.4-4.2-0.8-8.7-5-10.2
	c-1.7-0.6-3.5-0.6-5.2,0L14.6,9.7z"/>
<path id="multipath" d="M20.8,18.9L4.7,2.7L3.7,3.7l2.7,2.7C4.9,7.8,4,9.9,4,12c0,4.4,3.6,8,8,8c2.1,0,4.2-0.9,5.7-2.4l2.2,2.2
	L20.8,18.9z M7.6,10.3c0-0.6,0.4-1,1-1c0.6,0,1,0.4,1,1c0,0.6-0.4,1-1,1C8,11.3,7.6,10.9,7.6,10.3C7.6,10.3,7.6,10.3,7.6,10.3z
	 M12,17.1c-2.1,0-4-1.7-4-3.5h1.3c0.2,1.3,1.4,2.2,2.7,2.2c1,0,1.9-0.5,2.5-1.4l0.9,0.9C14.6,16.4,13.3,17.1,12,17.1z"/>
</svg>
