<?xml version="1.0" encoding="UTF-8"?><!DOCTYPE svg PUBLIC "-//W3C//DTD SVG 1.1//EN" "http://www.w3.org/Graphics/SVG/1.1/DTD/svg11.dtd"><svg xmlns="http://www.w3.org/2000/svg" xmlns:xlink="http://www.w3.org/1999/xlink" version="1.1" width="24" height="24" viewBox="0 0 24 24"><path d="M11,6H14L17.29,2.7L21.29,5.29L19,9H11V11C11,11.55 10.55,12 10,12C9.45,12 9,11.55 9,11V8C9,6.9 9.9,6 11,6M5,11V15L2.71,17.29L5.29,21.29L11,17H15C15.55,17 16,16.55 16,16V15H17C17.55,15 18,14.55 18,14V13H19C19.55,13 20,12.55 20,12V11H13V12C13,13.1 12.1,14 11,14H9C7.9,14 7,13.1 7,12V9Z" /></svg>