<?xml version="1.0" encoding="utf-8"?>
<!-- Generator: Adobe Illustrator 22.0.0, SVG Export Plug-In . SVG Version: 6.00 Build 0)  -->
<svg version="1.1" id="layer" xmlns="http://www.w3.org/2000/svg" xmlns:xlink="http://www.w3.org/1999/xlink" x="0px" y="0px"
	 viewBox="0 0 24 24" style="enable-background:new 0 0 24 24;" xml:space="preserve">
<g id="live" transform="translate(0 0)">
	<path id="path_6_" d="M19,16.6c2.7-2.2,2.7-7.1,0-9.3c-0.1-0.1-0.1-0.2,0-0.3c0.1-0.2,0.2-0.3,0.3-0.5c0.1-0.1,0.2-0.1,0.3,0
		c0,0,0,0,0,0c3,2.7,3.2,7.3,0.6,10.3c-0.2,0.2-0.4,0.4-0.6,0.6c-0.1,0.1-0.2,0.1-0.3,0c0,0,0,0,0,0c-0.1-0.2-0.2-0.3-0.3-0.5
		C18.9,16.8,18.9,16.7,19,16.6z"/>
	<path id="path_5_" d="M17.2,15.2c1.5-1.8,1.5-4.5,0-6.4c-0.1-0.1-0.1-0.2,0-0.3c0.1-0.1,0.3-0.3,0.4-0.4c0.1-0.1,0.2-0.1,0.3,0
		c0,0,0,0,0,0c1.8,2.2,1.8,5.4,0,7.7c-0.1,0.1-0.2,0.1-0.3,0.1c0,0,0,0,0,0c-0.1-0.1-0.3-0.3-0.4-0.4C17.1,15.4,17.1,15.3,17.2,15.2
		z"/>
	<path id="path_4_" d="M15.5,13.3c0.5-0.8,0.5-1.8,0-2.5c-0.1-0.1-0.1-0.2,0-0.3c0.1-0.1,0.3-0.3,0.4-0.4c0.1-0.1,0.2-0.1,0.3,0.1
		c0.8,1.1,0.8,2.6,0,3.8C16.1,14,16,14.1,15.9,14c-0.1-0.1-0.3-0.3-0.4-0.4C15.4,13.5,15.4,13.3,15.5,13.3z"/>
	<path id="path_3_" d="M5,16.6c-2.7-2.2-2.7-7.1,0-9.3c0.1-0.1,0.1-0.2,0-0.3C4.9,6.9,4.8,6.8,4.7,6.6c-0.1-0.1-0.2-0.1-0.3,0
		c0,0,0,0,0,0c-3,2.7-3.2,7.3-0.6,10.3C4,17,4.2,17.2,4.4,17.4c0.1,0.1,0.2,0.1,0.3,0c0,0,0,0,0,0c0.1-0.2,0.2-0.3,0.3-0.5
		C5.1,16.8,5.1,16.7,5,16.6z"/>
	<path id="path_2_" d="M6.8,15.2c-1.5-1.8-1.5-4.5,0-6.4c0.1-0.1,0.1-0.2,0-0.3C6.7,8.4,6.5,8.3,6.4,8.1C6.3,8,6.2,8.1,6.1,8.1
		c0,0,0,0,0,0c-1.8,2.2-1.8,5.4,0,7.7c0.1,0.1,0.2,0.1,0.3,0.1c0,0,0,0,0,0c0.1-0.1,0.3-0.3,0.4-0.4C6.9,15.4,6.9,15.3,6.8,15.2z"/>
	<path id="path_1_" d="M8.5,13.3c-0.5-0.8-0.5-1.8,0-2.5c0.1-0.1,0.1-0.2,0-0.3c-0.1-0.1-0.3-0.3-0.4-0.4C8,9.9,7.9,10,7.8,10.1
		c-0.8,1.1-0.8,2.6,0,3.8C7.9,14,8,14.1,8.1,14c0.1-0.1,0.3-0.3,0.4-0.4C8.6,13.5,8.6,13.3,8.5,13.3z"/>
	<path id="path" d="M12,13.9c1,0,1.9-0.8,1.9-1.9S13,10.1,12,10.1c-1,0-1.9,0.8-1.9,1.9C10.1,13,11,13.9,12,13.9L12,13.9z"/>
</g>
</svg>
