<?xml version="1.0" encoding="utf-8"?>
<!-- Generator: Adobe Illustrator 22.0.0, SVG Export Plug-In . SVG Version: 6.00 Build 0)  -->
<svg version="1.1" id="group" xmlns="http://www.w3.org/2000/svg" xmlns:xlink="http://www.w3.org/1999/xlink" x="0px" y="0px"
	 viewBox="0 0 24 24" style="enable-background:new 0 0 24 24;" xml:space="preserve">
<path id="path" d="M12.1,5.6c0-7.7,4.5,1.1,1.9,3.9c2.6-2.6,12.4-1.3,4.3,0.6c7.9-1.7,0.9,5.1-3.2,3c4.1,2.1,5.8,12,0.6,4.3
	c5.1,7.7-3.9,3.2-3.9-1.9c0,5.1-8.8,9.7-3.9,1.9c-4.9,7.7-3.4-2.1,0.6-4.3c-4.1,2.1-11.2-4.7-3-3C-2.5,8.1,7.4,6.9,10,9.4
	C7.6,6.9,12.1-2.1,12.1,5.6z"/>
</svg>
