<?xml version="1.0" encoding="utf-8"?>
<!-- Generator: Adobe Illustrator 22.0.0, SVG Export Plug-In . SVG Version: 6.00 Build 0)  -->
<svg version="1.1" id="layer" xmlns="http://www.w3.org/2000/svg" xmlns:xlink="http://www.w3.org/1999/xlink" x="0px" y="0px"
	 viewBox="0 0 24 24" style="enable-background:new 0 0 24 24;" xml:space="preserve">
<g id="group">
	<path id="path_6_" d="M14.2349,4.6253l-0.2478-0.0238c-0.0294-0.003-0.0558-0.0168-0.0742-0.0393
		c-0.0188-0.0228-0.0274-0.0515-0.0244-0.0805l0.2755-2.8829c0.0049-0.0508,0.0452-0.0921,0.096-0.0983
		c0.004-0.0007,0.0195-0.0007,0.0238-0.0003l0.2478,0.0238c0.0604,0.0059,0.1043,0.0594,0.0986,0.1194l-0.2755,2.8832
		c-0.0053,0.0515-0.0445,0.0917-0.096,0.0983C14.2547,4.6253,14.2392,4.6256,14.2349,4.6253"/>
	<path id="path_5_" d="M6.5346,8.8219C6.5274,8.8212,6.5013,8.8136,6.4947,8.81L3.9206,7.4751
		c-0.0257-0.0135-0.0452-0.036-0.0538-0.064C3.8579,7.3834,3.8609,7.353,3.8738,7.3276l0.1148-0.221
		c0.0165-0.032,0.0478-0.0538,0.0838-0.0584c0.0043-0.0003,0.0195-0.0007,0.0238-0.0003C4.11,7.0492,4.1235,7.0535,4.1364,7.0598
		L6.7102,8.395c0.0257,0.0129,0.0455,0.0363,0.0541,0.0643C6.7732,8.487,6.7705,8.5167,6.757,8.5428L6.6425,8.7632
		C6.626,8.7955,6.5947,8.8173,6.5584,8.8216C6.5544,8.8222,6.5389,8.8222,6.5346,8.8219"/>
	<path id="path_4_" d="M17.0137,5.4946c-0.0076-0.0007-0.0333-0.0082-0.0403-0.0119l-0.2211-0.1148
		c-0.0534-0.0277-0.0742-0.0937-0.0465-0.1475l1.3326-2.5721c0.0135-0.0261,0.037-0.0459,0.0647-0.0544
		c0.001,0,0.0406-0.0046,0.0439-0.0043c0.0125,0.001,0.0264,0.005,0.0393,0.0115l0.2211,0.1148
		c0.0534,0.0281,0.0742,0.094,0.0468,0.1478l-1.3329,2.5721c-0.0135,0.0257-0.037,0.0455-0.0647,0.0541l-0.0198,0.0043
		C17.0328,5.4949,17.0177,5.4949,17.0137,5.4946"/>
	<path id="path_3_" d="M10.9489,4.9733c-0.0069-0.0007-0.0327-0.0079-0.0389-0.0112c-0.0267-0.0142-0.0459-0.037-0.0544-0.0647
		L9.9799,2.1372C9.971,2.1092,9.9736,2.0795,9.9868,2.0537c0.0135-0.0261,0.0363-0.0452,0.0643-0.0541l0.2375-0.0756
		c0.0013,0,0.0409-0.005,0.0439-0.0046c0.0129,0.0013,0.0264,0.0053,0.0393,0.0119c0.0267,0.0139,0.0459,0.0366,0.0544,0.0643
		l0.8753,2.7602c0.0185,0.0574-0.0132,0.1191-0.0709,0.1376l-0.2375,0.0752L10.973,4.9733
		C10.9687,4.9736,10.9532,4.9739,10.9489,4.9733"/>
	<path id="path_2_" d="M8.463,6.4006c-0.0069,0.002-0.0333,0.0046-0.0403,0.004c-0.03-0.003-0.0564-0.0172-0.0749-0.0396
		L6.5062,4.1304C6.4874,4.1079,6.4788,4.0796,6.4814,4.0502c0.003-0.029,0.0168-0.0554,0.0393-0.0739L6.713,3.8176
		C6.7144,3.8169,6.7493,3.7978,6.752,3.7968c0.0125-0.0036,0.0267-0.0049,0.0409-0.0036c0.03,0.003,0.0561,0.0168,0.0746,0.0396
		L8.7091,6.067c0.0386,0.0465,0.032,0.1155-0.0145,0.1541L8.5022,6.3798L8.4854,6.3917C8.4815,6.3937,8.4673,6.3993,8.463,6.4006"/>
	<path id="path_1_" d="M12.4356,22.5c-0.0238,0-0.0478-0.003-0.0713-0.0079c-0.0119-0.003-0.0234-0.0066-0.0353-0.0109
		c-0.0208-0.0073-0.0406-0.0165-0.0584-0.028c-0.0723-0.0439-0.1231-0.1135-0.1429-0.1956
		c-0.0198-0.0825-0.0063-0.1673,0.0379-0.2395l1.2867-2.1033c0.028-0.0455,0.0673-0.0835,0.1135-0.1095
		c2.3949-1.3685,3.063-2.0218,3.33-2.5817c0.5642-1.0373,1.1993-2.2488,1.2692-2.458c0.0148-0.1369-0.0059-0.2128-0.0284-0.2349
		l-1.1818,1.7559c-0.0591,0.0871-0.157,0.1389-0.2616,0.1389c-0.0241,0-0.0485-0.0026-0.0723-0.0082
		c-0.0373-0.0086-0.0723-0.0238-0.1046-0.0452c-0.1445-0.097-0.1834-0.2933-0.0874-0.4381l1.5672-2.3606
		c0.0115-0.1036,0.0238-0.3751-0.158-0.5259l-1.7793,2.3577c-0.0607,0.0798-0.1518,0.1257-0.2498,0.1257
		c-0.0238,0-0.0472-0.0026-0.0703-0.0079c-0.0172-0.004-0.034-0.0096-0.0505-0.0162c-0.1326-0.0548-0.2128-0.1917-0.195-0.3332
		c0-0.0003,0.0033-0.0267,0.0033-0.0267c0.0073-0.0561,0.0294-0.1089,0.0637-0.1534l1.5639-2.0353
		c0.0102-0.0132,0.0214-0.0254,0.033-0.0363l0.4744-0.6226c0.1138-0.1465,0.1389-0.4355,0.0538-0.6189
		c-0.0422-0.0914-0.0887-0.1115-0.1198-0.1188c-0.0122-0.0026-0.0231-0.0033-0.0307-0.0036h-0.0003
		c-0.1211,0-0.2656,0.1029-0.4048,0.2814l-2.163,2.807c-0.061,0.0792-0.1521,0.1241-0.2491,0.1241
		c-0.0238,0-0.0475-0.0026-0.0706-0.0076c-0.0178-0.0043-0.0353-0.0099-0.0528-0.0175c-0.1307-0.0538-0.2102-0.1907-0.1923-0.3319
		c0.0102-0.0818,0.032-0.1346,0.0666-0.1798l1.8971-2.4629c0.0769-0.099,0.1128-0.2752,0.0861-0.42
		c-0.0106-0.0571-0.0399-0.1597-0.1198-0.2075c-0.0102-0.0063-0.0205-0.0106-0.0323-0.0132
		c-0.0092-0.0023-0.0191-0.0033-0.0294-0.0033c-0.1316,0-0.295,0.1735-0.3468,0.2402l-2.613,3.2208
		c-0.0181,0.0224-0.0396,0.0426-0.063,0.0584l-0.2234,0.2818c-0.0594,0.0746-0.1521,0.1191-0.2481,0.1191
		c-0.0238,0-0.0472-0.003-0.0703-0.0079c-0.0023-0.0007-0.0267-0.0079-0.029-0.0086c-0.1257-0.0396-0.2131-0.1574-0.2164-0.2926
		l-0.0422-1.8149c-0.0541-0.3986-0.2851-0.4946-0.3817-0.517C12.011,12.4,11.9915,12.398,11.98,12.397
		c-0.034,0.0185-0.1653,0.2296-0.2227,0.7347l-0.4563,4.0281c-0.0049,0.0432-0.0181,0.0841-0.0396,0.1217l-0.9891,1.7331
		c-0.0561,0.098-0.1617,0.1594-0.2755,0.1594c-0.0238,0-0.0475-0.003-0.0703-0.0079c-0.0122-0.003-0.0241-0.0066-0.036-0.0109
		c-0.0172-0.0059-0.034-0.0139-0.0501-0.0231c-0.1514-0.0868-0.2039-0.2801-0.1178-0.4319l0.9584-1.6787l0.4474-3.9604
		c0.0947-0.837,0.3949-1.2973,0.8459-1.2973l0.0363,0.001c0.0505,0.001,0.1069,0.0082,0.165,0.0218
		c0.1788,0.0412,0.7697,0.2409,0.8723,1.0739c0.0007,0.003,0.0026,0.0303,0.0026,0.0333l0.0228,0.9809l2.3544-2.902
		c0.2382-0.3055,0.5454-0.4814,0.842-0.4814c0.0564,0,0.1125,0.0063,0.1666,0.0185c0.0772,0.0181,0.1514,0.0485,0.2217,0.0907
		c0.1778,0.1066,0.3091,0.2765,0.3797,0.4916c0.1429-0.1138,0.3138-0.1676,0.487-0.1676l0.0346,0.0007
		c0.0508,0.002,0.1006,0.0086,0.1481,0.0198c0.2415,0.0558,0.4378,0.222,0.552,0.4688c0.157,0.3395,0.1402,0.8083-0.0412,1.1402
		c0.3359,0.2445,0.483,0.6991,0.3893,1.1976c-0.0082,0.0426-0.0241,0.0815-0.0475,0.1171l-0.0924,0.1389
		c0.037,0.005,0.0756,0.0356,0.1109,0.0699c0.1841,0.1801,0.2557,0.4441,0.2121,0.7859c-0.0086,0.0657-0.0337,0.2646-1.3273,2.6401
		c-0.39,0.8113-1.3105,1.5483-3.5164,2.8126l-1.2415,2.0324C12.6474,22.4433,12.5465,22.5,12.4356,22.5"/>
	<path id="path" d="M9.4373,17.4464c-0.0135,0-0.0271-0.001-0.0406-0.0026c-0.1726-0.0218-0.2953-0.1808-0.2735-0.3537
		l0.2435-1.9182L8.266,11.3414C7.943,10.217,8.3277,9.897,8.5857,9.8066C8.6333,9.7878,8.688,9.7733,8.7464,9.7634
		c0.0383-0.0063,0.096-0.0132,0.1676-0.0132c0.2498,0,0.7183,0.0874,1.0492,0.6721c0.0017,0.003,0.0139,0.0274,0.0152,0.0303
		l0.3867,0.8756l1.0752-3.5602c0.1244-0.4503,0.4068-0.7549,0.7549-0.8133c0.0403-0.0063,0.0815-0.0099,0.1231-0.0099
		c0.0386,0,0.0772,0.003,0.1161,0.0086c0.2055,0.031,0.3916,0.1379,0.5391,0.3095c0.096-0.1709,0.2441-0.29,0.418-0.3537
		c0.0482-0.0175,0.0967-0.0304,0.1448-0.0386c0.0419-0.0069,0.0841-0.0102,0.126-0.0102c0.2032,0,0.3979,0.0802,0.5632,0.2326
		c0.2748,0.2534,0.4385,0.6932,0.3976,1.0693c0.4038,0.0973,0.7136,0.4612,0.8179,0.9581c0.0089,0.0422,0.0089,0.0845,0.001,0.126
		L15.4096,9.41c0.0079-0.002,0.0168-0.003,0.0257-0.003c0.0317,0,0.0683,0.0112,0.1036,0.0254
		c0.1887,0.0756,0.3345,0.2333,0.4329,0.4682c0.0092,0.0221,0.0076,0.0472-0.0046,0.068c-0.0125,0.0204-0.0337,0.034-0.0574,0.0366
		c-0.1353,0.0135-0.2715,0.0706-0.4048,0.1689c-0.0132,0.0099-0.029,0.0149-0.0449,0.0149c-0.0069,0-0.0139-0.0007-0.0205-0.003
		c-0.0224-0.0059-0.0406-0.0221-0.0495-0.0439c-0.0323-0.0772-0.066-0.1138-0.0864-0.1221l-0.1547,0.5193
		c-0.0026,0.0096-0.0073,0.0182-0.0135,0.0257l-0.6262,0.7717c-0.0148,0.0181-0.0366,0.028-0.0587,0.028
		c-0.0109,0-0.0221-0.002-0.0327-0.0069c-0.0317-0.0152-0.0485-0.0498-0.0416-0.0841l0.4319-2.0855
		c-0.0294-0.0996-0.1221-0.355-0.3474-0.4249l-0.7423,2.8588c-0.0327,0.1221-0.1287,0.2105-0.2514,0.2313
		c-0.0168,0.0026-0.0343,0.004-0.0525,0.0043c-0.1442,0-0.2702-0.096-0.3078-0.2336c0,0-0.0069-0.0257-0.0069-0.0261
		c-0.0145-0.0544-0.0145-0.1115,0-0.166l0.6671-2.4784c0.004-0.0158,0.0099-0.0317,0.0165-0.0462l0.1999-0.7565
		c0.0495-0.1788-0.0379-0.4556-0.1867-0.5929c-0.0478-0.0439-0.0917-0.0657-0.1336-0.0657
		c-0.0346,0.0043-0.0452,0.0079-0.0528,0.0106c-0.1072,0.0389-0.2039,0.19-0.2663,0.4144l-0.9251,3.421
		c-0.0152,0.0561-0.0455,0.1072-0.0878,0.1475c-0.0142,0.0139-0.0333,0.0211-0.0521,0.0211c-0.0172,0-0.0346-0.0063-0.0488-0.0181
		c-0.1584-0.1326-0.319-0.1808-0.3807-0.1953c-0.0353-0.0086-0.0597-0.0406-0.0581-0.0772
		c0.0007-0.0201,0.0026-0.0442,0.0096-0.0693l0.811-3.0004c0.0333-0.1211-0.0007-0.2979-0.0812-0.4213
		c-0.0313-0.0485-0.098-0.1323-0.1897-0.1458L12.2935,7.505l0.0125,0.0749c-0.1346,0.0221-0.2333,0.2758-0.257,0.3626l-1.1828,3.975
		c-0.0086,0.0277-0.0205,0.0541-0.0356,0.0782l-0.0993,0.3454c-0.0337,0.1165-0.1323,0.2046-0.2514,0.2247
		c-0.0026,0.0003-0.0327,0.0033-0.034,0.0033c-0.1468,0-0.258-0.0739-0.3082-0.1881l-0.7331-1.6609
		c-0.1613-0.2771-0.353-0.3365-0.4847-0.3365c-0.0261,0-0.0482,0.0023-0.066,0.0049c-0.0247,0.0043-0.0435,0.0102-0.0544,0.0139
		c-0.0247,0.03-0.0657,0.2755,0.0746,0.7644l1.1188,3.8958c0.0119,0.0419,0.0152,0.0848,0.0096,0.1273l-0.2511,1.9796
		c-0.0175,0.1376-0.1254,0.2498-0.262,0.2725C9.4769,17.4441,9.4383,17.4464,9.4373,17.4464"/>
</g>
</svg>
