<?xml version="1.0" encoding="utf-8"?>
<!-- Generator: Adobe Illustrator 22.0.0, SVG Export Plug-In . SVG Version: 6.00 Build 0)  -->
<svg version="1.1" id="レイヤー_1" xmlns="http://www.w3.org/2000/svg" xmlns:xlink="http://www.w3.org/1999/xlink" x="0px"
	 y="0px" viewBox="0 0 24 24" style="enable-background:new 0 0 24 24;" xml:space="preserve">
<g>
	<path d="M16,12.8l3.8,4.2h0.9v-2c0-1.1-0.9-2-2-2S16.7,12.9,16,12.8z"/>
	<path d="M9.7,5.7l4.5,5c0.2-1.4,1.5-3.2,1.5-4.7c0-1.7-1.3-3-3-3C11.1,3,9.9,3.9,9.7,5.7z"/>
	<path d="M4.7,15v2h9.7l1.8,2H6.7v2h11.2l1.7,1.8l1.5-1.3L5.1,3.4L3.6,4.7l6.8,7.7C9.7,12.8,8.5,13,6.7,13C5.6,13,4.7,13.9,4.7,15z"
		/>
</g>
</svg>
