<?xml version="1.0" encoding="utf-8"?>
<!-- Generator: Adobe Illustrator 22.0.0, SVG Export Plug-In . SVG Version: 6.00 Build 0)  -->
<svg version="1.1" id="レイヤー_1" xmlns="http://www.w3.org/2000/svg" xmlns:xlink="http://www.w3.org/1999/xlink" x="0px"
	 y="0px" viewBox="0 0 24 24" style="enable-background:new 0 0 24 24;" xml:space="preserve">
<style type="text/css">
	.st0{fill:none;}
</style>
<g transform="translate(0.5 0.5)">
	<path d="M14.8,20.5H8.2c-1.1,0-2-0.8-2.1-1.9L5.3,8.3c0-0.4,0.3-0.7,0.6-0.8c0.4,0,0.7,0.3,0.8,0.6l0.8,10.3c0,0.3,0.3,0.6,0.7,0.6
		h6.6c0.3,0,0.6-0.3,0.7-0.6l0.8-10.3c0-0.4,0.4-0.7,0.8-0.6c0.4,0,0.7,0.4,0.6,0.8l-0.8,10.3C16.8,19.7,15.9,20.5,14.8,20.5z"/>
	<path d="M11.5,18.3c-0.4,0-0.7-0.3-0.7-0.7V8.2c0-0.4,0.3-0.7,0.7-0.7s0.7,0.3,0.7,0.7v9.4C12.2,18,11.9,18.3,11.5,18.3z"/>
	<path d="M9,18.3c-0.4,0-0.7-0.3-0.7-0.7L7.9,8.2c0-0.4,0.3-0.7,0.7-0.7c0.4,0,0.7,0.3,0.7,0.7l0.4,9.4C9.7,17.9,9.4,18.2,9,18.3
		C9,18.3,9,18.3,9,18.3z"/>
	<path d="M14,18.3C14,18.3,14,18.3,14,18.3c-0.4,0-0.7-0.3-0.7-0.7l0.4-9.4c0-0.4,0.3-0.7,0.7-0.7c0.4,0,0.7,0.3,0.7,0.7l-0.4,9.4
		C14.7,18,14.4,18.3,14,18.3z"/>
	<g>
		<polygon class="st0" points="13.5,3.9 9.5,3.9 9,5.1 14.1,5.1 		"/>
		<path d="M17.6,5.1h-2l-0.9-2.2c-0.1-0.3-0.4-0.4-0.6-0.4H9c-0.3,0-0.5,0.2-0.6,0.4L7.4,5.1h-2C5,5.1,4.7,5.4,4.7,5.8
			c0,0.4,0.3,0.7,0.7,0.7h2.4c0,0,0,0,0,0h7.2c0,0,0,0,0,0c0,0,0,0,0,0h2.4c0.4,0,0.7-0.3,0.7-0.7C18.3,5.4,18,5.1,17.6,5.1z
			 M9.5,3.9h4.1l0.5,1.2H9L9.5,3.9z"/>
	</g>
</g>
</svg>
