<?xml version="1.0" encoding="utf-8"?>
<!-- Generator: Adobe Illustrator 22.0.0, SVG Export Plug-In . SVG Version: 6.00 Build 0)  -->
<svg version="1.1" id="レイヤー_1" xmlns="http://www.w3.org/2000/svg" xmlns:xlink="http://www.w3.org/1999/xlink" x="0px"
	 y="0px" viewBox="0 0 24 24" style="enable-background:new 0 0 24 24;" xml:space="preserve">
<path d="M4.6,13.2L2,14.7c0.2,0.8,0.6,1.7,1,2.4l2.9-0.7l1.7,1.7L6.8,21c0.8,0.4,1.6,0.8,2.4,1l1.6-2.6h2.3l1.6,2.6
	c0.8-0.2,1.7-0.6,2.4-1l-0.7-2.9l1.7-1.7l2.9,0.7c0.4-0.8,0.8-1.6,1-2.4l-2.6-1.6v-2.3L22,9.3c-0.2-0.8-0.6-1.7-1-2.4l-2.9,0.7
	l-1.7-1.7L17.1,3c-0.8-0.4-1.6-0.8-2.4-1l-1.6,2.6h-2.3L9.3,2C8.4,2.2,7.6,2.6,6.8,3l0.7,2.9L5.9,7.6L3,6.9C2.6,7.6,2.2,8.4,2,9.3
	l2.6,1.6V13.2z M7.6,12c0-2.5,2-4.4,4.4-4.4c2.5,0,4.4,2,4.4,4.4c0,2.4-2,4.4-4.4,4.4C9.5,16.4,7.6,14.5,7.6,12
	C7.6,12,7.6,12,7.6,12z"/>
</svg>
