<?xml version="1.0" encoding="UTF-8"?><!DOCTYPE svg PUBLIC "-//W3C//DTD SVG 1.1//EN" "http://www.w3.org/Graphics/SVG/1.1/DTD/svg11.dtd"><svg xmlns="http://www.w3.org/2000/svg" xmlns:xlink="http://www.w3.org/1999/xlink" version="1.1" width="24" height="24" viewBox="0 0 24 24"><path d="M19.5,1L18.41,3.41L16,4.5L18.41,5.59L19.5,8L20.6,5.59L23,4.5L20.6,3.41L19.5,1M12,2C6.5,2 2,6.5 2,12V22H22V12C22,10.53 21.67,9.13 21.1,7.87L19.86,10.59C19.94,11.05 20,11.5 20,12C20,16.43 16.43,20 12,20C7.57,20 4,16.43 4,12C4,11.96 4,11.91 4,11.87C9.52,11.87 9.74,11.83 9.74,6.31C9.74,11.83 11.98,10 17.5,10C23.02,10 18.83,15.43 18.83,9.91L17.35,6.65L12.6,4.5L16.13,2.9C14.87,2.33 13.47,2 12,2M9,11.75C8.31,11.75 7.75,12.31 7.75,13C7.75,13.69 8.31,14.25 9,14.25C9.69,14.25 10.25,13.69 10.25,13C10.25,12.31 9.69,11.75 9,11.75M15,11.75C14.31,11.75 13.75,12.31 13.75,13C13.75,13.69 14.31,14.25 15,14.25C15.69,14.25 16.25,13.69 16.25,13C16.25,12.31 15.69,11.75 15,11.75Z" /></svg>