<?xml version="1.0" encoding="utf-8"?>
<!-- Generator: Adobe Illustrator 25.1.0, SVG Export Plug-In . SVG Version: 6.00 Build 0)  -->
<svg version="1.1" id="layer" xmlns="http://www.w3.org/2000/svg" xmlns:xlink="http://www.w3.org/1999/xlink" x="0px" y="0px"
	 viewBox="0 0 24 24" style="enable-background:new 0 0 24 24;" xml:space="preserve">
<path id="multipath" d="M12,4c-4.4,0-8,3.6-8,8s3.6,8,8,8s8-3.6,8-8S16.4,4,12,4z M7.6,10.3c0-0.6,0.4-1,1-1c0.6,0,1,0.4,1,1
	c0,0.6-0.4,1-1,1C8,11.3,7.6,10.9,7.6,10.3C7.6,10.3,7.6,10.3,7.6,10.3z M12,17.1c-2.1,0-4-1.7-4-3.5h1.3c0.2,1.3,1.4,2.2,2.7,2.2
	c1.3,0,2.5-0.9,2.7-2.2H16C16,15.4,14.1,17.1,12,17.1z M15.4,11.4c-0.6,0-1-0.4-1-1s0.4-1,1-1c0.6,0,1,0.4,1,1
	C16.4,10.9,15.9,11.4,15.4,11.4L15.4,11.4z"/>
</svg>
