<?xml version="1.0"?>
<svg xmlns="http://www.w3.org/2000/svg" viewBox="0 0 512 512" width="512" height="512"><g id="outline"><path d="M250.343,159.257a8,8,0,0,0,11.314,0l49.04-49.041A31.759,31.759,0,1,0,265.784,65.3L256,75.086,246.216,65.3A31.758,31.758,0,1,0,201.3,110.215ZM223.759,72A15.647,15.647,0,0,1,234.9,76.616l15.442,15.441a8,8,0,0,0,11.314,0L277.1,76.615A15.759,15.759,0,0,1,299.385,98.9h0L256,142.286,212.615,98.9A15.759,15.759,0,0,1,223.759,72Z"/><path d="M462.046,173.239a8,8,0,0,0-.98-11.431l-88-72a8,8,0,0,0-11.242,1.107L268.316,204.46l-31.355-18.813-95.3-95.3a8,8,0,0,0-11.009-.289l-80,72a8,8,0,0,0-.627,11.261l62.4,70.2,7.094,49.657-6.773,6.773a29.115,29.115,0,0,0-.81,40.444A32.553,32.553,0,0,0,135.8,350.736a30.733,30.733,0,0,0,14.147-3.4l11.4,17.1a8,8,0,0,0,5.772,3.513l8.644.96-2.267,3.312a23.993,23.993,0,0,0,17.714,37.459,23.994,23.994,0,0,0,27.08,24.571,24,24,0,0,0,27.728,17.863,24.236,24.236,0,0,0,4.972-1.494,24.019,24.019,0,0,0,41.339,2.932l3.681-5.378a8.049,8.049,0,0,0,.825-1.555,23.858,23.858,0,0,0,10.562-7.451h0a23.857,23.857,0,0,0,5.056-11.081,24.048,24.048,0,0,0,2.73.175,24.38,24.38,0,0,0,2.467-.126,23.995,23.995,0,0,0,21.55-24.969,23.818,23.818,0,0,0,14.852-8.533h0a24,24,0,0,0,4.182-22.685,23.992,23.992,0,0,0,6.421-40.935l-4.651-3.8V290.984ZM127.92,238.869a8.012,8.012,0,0,0-1.941-4.184L67.262,168.627l68.448-61.6,90.633,90.633a8.05,8.05,0,0,0,1.541,1.2l30.148,18.089-6.3,7.653-45.044,7.507a7.993,7.993,0,0,0-2.263.736l-48,24a7.986,7.986,0,0,0-2.079,1.5l-20.686,20.686Zm34.868,98.891,26.494-21.308,3.563,7.126a8,8,0,0,0,5.586,4.267l20.708,4.141A16.043,16.043,0,0,1,232,347.675v2.449a8,8,0,0,1-8.883,7.951l-50.528-5.615Zm25.993,54.619a8.01,8.01,0,0,1-2.084-11.12l7.081-10.345,18.019,2L199.9,390.3l0,0-.007.011A8.009,8.009,0,0,1,188.781,392.379Zm63.911,34.1-4.5,6.567a8,8,0,0,1-13.2-9.037l7.113-10.393a23.9,23.9,0,0,0,6.724,8.753l4.311,3.517c-.147.18-.291.363-.425.558Zm16.366-28.906,24.8,20.229A8,8,0,0,1,295,429.056h0a8.009,8.009,0,0,1-11.257,1.142l-24.8-20.229a8,8,0,0,1,4.25-14.158,8.113,8.113,0,0,1,.823-.041A7.94,7.94,0,0,1,269.058,397.572ZM268,446.6a7.986,7.986,0,0,1-2.422-10.567l8.045,6.563a24.133,24.133,0,0,0,4.641,2.959A8.008,8.008,0,0,1,268,446.6Zm53.42-37.282a8,8,0,0,1-11.256,1.142l-24.8-20.229a8,8,0,0,1,10.114-12.4l24.8,20.229a8,8,0,0,1,1.142,11.256Zm20.227-24.8h0a8,8,0,0,1-11.255,1.142l-24.8-20.228a8,8,0,0,1,4.251-14.158,8.081,8.081,0,0,1,.822-.042,7.942,7.942,0,0,1,5.039,1.8l24.8,20.23A8.009,8.009,0,0,1,341.649,384.522Zm-22.021-48.939a8,8,0,0,1,10.114-12.4l24.8,20.229a8,8,0,0,1-10.112,12.4Zm20.227-24.8a23.989,23.989,0,0,0-37.953,26.1,24.006,24.006,0,0,0-15.219,23.454,23.977,23.977,0,0,0-19.906,19.589,24.031,24.031,0,0,0-3.281-.149,8,8,0,0,0-14.6-4.421l-27.11,39.611a8,8,0,0,1-13.2-9.036L229.6,375.229a8.014,8.014,0,0,0,1-2.04A23.972,23.972,0,0,0,248,350.124v-2.449A32.084,32.084,0,0,0,222.276,316.3l-16.871-3.374-6.25-12.5a7.989,7.989,0,0,0-12.168-2.653v0l-42.295,34.015c-5.99,4.817-15.412,3.81-21-2.244a13.157,13.157,0,0,1,.367-18.278l40.683-40.684L210.5,247.693l46.813-7.8a8,8,0,0,0,4.861-2.806l106.93-129.844,75.458,61.739-98.61,113.781A8,8,0,0,0,344,288v26.168Z"/></g></svg>
