<?xml version="1.0" encoding="utf-8"?>
<!-- Generator: Adobe Illustrator 22.0.0, SVG Export Plug-In . SVG Version: 6.00 Build 0)  -->
<svg version="1.1" id="レイヤー_1" xmlns="http://www.w3.org/2000/svg" xmlns:xlink="http://www.w3.org/1999/xlink" x="0px"
	 y="0px" viewBox="0 0 24 24" style="enable-background:new 0 0 24 24;" xml:space="preserve">
<g transform="translate(-0.014)">
	<g transform="translate(0.014)">
		<g transform="translate(0)">
			<path d="M22,10.8c0-0.1-0.1-0.1-0.1-0.2l-1.6-1.6c-0.2-0.2-0.5-0.2-0.7,0s-0.2,0.5,0,0.7l0.7,0.7h-2.9c-0.3,0-0.5,0.2-0.5,0.5
				s0.2,0.5,0.5,0.5h2.9l-0.7,0.7c-0.2,0.2-0.2,0.5,0,0.7c0.2,0.2,0.5,0.2,0.7,0l1.6-1.6c0,0,0.1-0.1,0.1-0.2
				C22,11.1,22,10.9,22,10.8z"/>
			<path d="M17.9,13.7c-0.5,0-0.9,0.3-0.9,0.8v4.2h-3.7V5.3c0-0.4-0.3-0.7-0.7-0.8L9.3,3.7H17v4.2c0.1,0.5,0.5,0.9,1,0.8
				c0.4-0.1,0.8-0.4,0.8-0.8v-5c0-0.5-0.4-0.9-0.9-0.8h-15c0,0-0.1,0-0.1,0c0,0-0.1,0-0.1,0c-0.1,0-0.2,0.1-0.3,0.1c0,0,0,0-0.1,0
				s0,0,0,0C2.3,2.3,2.2,2.3,2.1,2.4c0,0,0,0,0,0.1C2.1,2.6,2,2.6,2,2.7c0,0,0,0,0,0.1c0,0,0,0,0,0v16.7c0,0.4,0.3,0.8,0.7,0.8
				l9.4,1.7c0.1,0,0.1,0,0.2,0c0.2,0,0.4-0.1,0.6-0.2c0.2-0.1,0.3-0.4,0.3-0.6v-0.8h4.7c0.5,0,0.9-0.3,0.9-0.8v-5
				C18.8,14,18.4,13.6,17.9,13.7z"/>
		</g>
	</g>
</g>
</svg>
