<?xml version="1.0" encoding="utf-8"?>
<!-- Generator: Adobe Illustrator 22.0.0, SVG Export Plug-In . SVG Version: 6.00 Build 0)  -->
<svg version="1.1" id="layer" xmlns="http://www.w3.org/2000/svg" xmlns:xlink="http://www.w3.org/1999/xlink" x="0px" y="0px"
	 viewBox="0 0 9.3 4.3" style="enable-background:new 0 0 9.3 4.3;" xml:space="preserve">
<g id="group" transform="translate(0)">
	<path id="path_2_" d="M0.8,1.4C0.4,1.4,0,1.7,0,2.2C0,2.6,0.4,3,0.8,3c0.4,0,0.8-0.4,0.8-0.8l0,0C1.6,1.7,1.2,1.4,0.8,1.4z"/>
	<path id="path_1_" d="M3.7,3C3.1,2.4,1.6,2.4,1.6,2.2S3.1,2,3.7,1.3C4.4,0.6,4.4,0,4.7,0s0.2,0.6,0.9,1.3C6.2,2,7.7,1.9,7.7,2.2
		S6.2,2.4,5.6,3C4.9,3.8,4.9,4.3,4.7,4.3S4.4,3.8,3.7,3z"/>
	<path id="path" d="M8.5,1.4c-0.4,0-0.8,0.4-0.8,0.8C7.7,2.6,8.1,3,8.5,3C9,3,9.3,2.6,9.3,2.2l0,0C9.3,1.7,9,1.4,8.5,1.4z"/>
</g>
</svg>
