<?xml version="1.0" encoding="utf-8"?>
<!-- Generator: Adobe Illustrator 22.0.0, SVG Export Plug-In . SVG Version: 6.00 Build 0)  -->
<svg version="1.1" id="capa" xmlns="http://www.w3.org/2000/svg" xmlns:xlink="http://www.w3.org/1999/xlink" x="0px" y="0px"
	 viewBox="0 0 24 24" style="enable-background:new 0 0 24 24;" xml:space="preserve">
<g id="group">
	<path id="path" d="M19.4,3.6c2,0.1,3,1.2,3,3.4c0,0.1,0,0.3,0,0.5c-0.1,1.9-1.5,4.5-4.2,7.8c-2.8,3.4-5.2,5.1-7.2,5.2
		c-1.2,0-2.2-1-3.1-3.2L7,14.4l-0.8-2.9c-0.6-2.1-1.3-3.1-2-3.1C4,8.4,3.5,8.7,2.6,9.3l-1-1.2l1.5-1.3l1.5-1.3C6,4.5,7,3.9,7.7,3.8
		c0.1,0,0.2,0,0.3,0c1.4,0,2.4,1,2.7,3.1c0.2,1.2,0.4,2.2,0.5,2.9c0.1,0.7,0.2,1.3,0.3,1.6c0.5,2,1,3,1.6,3c0.4,0,1.1-0.6,2-1.9
		c0.9-1.3,1.3-2.3,1.4-2.9c0-0.1,0-0.2,0-0.4c0-0.9-0.5-1.3-1.4-1.3c-0.5,0-1,0.1-1.5,0.3c1-3,2.9-4.5,5.7-4.5
		C19.2,3.6,19.3,3.6,19.4,3.6z"/>
</g>
</svg>
