<?xml version="1.0" encoding="utf-8"?>
<!-- Generator: Adobe Illustrator 25.1.0, SVG Export Plug-In . SVG Version: 6.00 Build 0)  -->
<svg version="1.1" id="layer" xmlns="http://www.w3.org/2000/svg" xmlns:xlink="http://www.w3.org/1999/xlink" x="0px" y="0px"
	 viewBox="0 0 32 32" style="enable-background:new 0 0 32 32;" xml:space="preserve">
<g id="group">
	<path id="multiple" d="M1.0005,16.0373C1.0007,13.6029,1.0013,11.1684,1,8.734C0.9998,8.3764,1.0516,8.033,1.2169,7.7099
		C1.4439,7.266,1.7952,6.9583,2.2476,6.766c4.314-1.8336,8.6292-3.6645,12.9435-5.4974c0.5471-0.2324,1.0886-0.2237,1.6343,0.0059
		c4.2911,1.8054,8.5829,3.6091,12.8745,5.4133c0.8519,0.3581,1.2993,1.0265,1.2994,1.9487
		c0.0007,4.8903,0.0013,9.7806-0.0006,14.6709c-0.0004,0.9324-0.4342,1.5881-1.2926,1.9537
		c-4.2685,1.8178-8.5384,3.6321-12.8062,5.4515c-0.5886,0.2509-1.1589,0.2525-1.7534,0.002
		c-4.2803-1.8035-8.5646-3.5975-12.8478-5.394c-0.6785-0.2846-1.1206-0.77-1.2637-1.5011
		c-0.0325-0.1662-0.0333-0.3404-0.0334-0.5109C0.9997,20.8848,1.0004,18.4611,1.0005,16.0373z M16.5229,13.7263
		c0.168,0.3326,0.2169,0.6894,0.2181,1.0567c0.0155,4.6707-0.0061,9.3415,0.0314,14.0121c0.0022,0.2744-0.0483,0.3017,0.2568,0.1723
		c1.7366-0.7367,3.4734-1.4729,5.21-2.2099c2.2881-0.971,4.5747-1.9455,6.8656-2.9097c0.2675-0.1126,0.367-0.2772,0.3667-0.5626
		c-0.0055-4.6977-0.0039-9.3954-0.0039-14.0931c0-0.0574,0-0.1149,0-0.1683c-0.0619-0.0188-0.0972,0.012-0.1348,0.0287
		c-1.9104,0.8474-3.8204,1.6955-5.7305,2.5435c-0.1419,0.063-0.284,0.1253-0.4419,0.1357
		c-0.3615,0.0236-0.6038-0.1649-0.7936-0.4466c-0.0006-0.016,0.003-0.0337-0.0025-0.0478c-0.1616-0.419,0.0482-0.8252,0.5129-1.0214
		c1.1472-0.4846,2.2838-0.9942,3.4248-1.4934c0.6741-0.2949,1.3484-0.5892,2.0239-0.8843C28.2953,7.782,28.2422,7.778,28.1996,7.76
		c-1.6521-0.7005-3.305-1.3989-4.9564-2.1011c-0.0957-0.0407-0.1723-0.0428-0.2694-0.0014
		c-3.4238,1.4606-6.8489,2.918-10.2739,4.3759c-0.6115,0.2603-1.2229,0.521-1.8613,0.793c0.079,0.0343,0.1317,0.0576,0.1849,0.0801
		c1.4422,0.6095,2.8829,1.2229,4.3277,1.8262C15.8509,12.9413,16.265,13.2385,16.5229,13.7263z M15.2356,29.0796
		c0-0.0804,0.0002-0.1374,0-0.1944c-0.0036-1.1127-0.0088-2.2255-0.0106-3.3382c-0.006-3.6005-0.0124-7.201-0.0132-10.8015
		c-0.0001-0.2742-0.1123-0.4434-0.36-0.5421c-0.2135-0.0851-0.4233-0.1792-0.6348-0.2691c-1.4704-0.625-2.9413-1.2489-4.4103-1.8771
		c-0.1249-0.0534-0.1636-0.0427-0.1597,0.1031c0.0087,0.3315,0.0091,0.6635,0.0009,0.995
		c-0.0113,0.4588-0.3132,0.7798-0.7351,0.7964c-0.4524,0.0178-0.7918-0.2562-0.8144-0.7219
		c-0.0275-0.5655-0.0165-1.1339,0.003-1.7001c0.0051-0.1478-0.0273-0.2002-0.1552-0.2535c-0.8472-0.353-1.6907-0.7149-2.5356-1.0736
		c-0.9046-0.384-1.8103-0.7653-2.713-1.1538C2.5703,8.9939,2.5363,9.0198,2.554,9.1483C2.5562,9.164,2.5543,9.1804,2.5543,9.1964
		c0,4.7079,0,9.4159,0,14.1238c0,0.0375,0.0011,0.0749,0.0001,0.1123c-0.0051,0.1865,0.0902,0.3141,0.2432,0.4033
		c0.0643,0.0375,0.1353,0.0638,0.2042,0.0929c3.7183,1.5657,7.4367,3.1311,11.1551,4.6966
		C14.51,28.774,14.8629,28.9226,15.2356,29.0796z M3.7446,7.7995c0.0458,0.0209,0.0792,0.037,0.1132,0.0515
		c1.6123,0.685,3.2256,1.3676,4.8353,2.0587C8.8505,9.9773,8.974,9.9999,9.1125,9.8813c0.0626-0.0536,0.151-0.0784,0.2296-0.112
		c3.2239-1.378,6.4479-2.7555,9.672-4.1329c0.6868-0.2934,1.374-0.5862,2.0629-0.8801c-0.0357-0.0587-0.0937-0.0637-0.1413-0.0837
		c-1.5275-0.6411-3.0573-1.2765-4.5813-1.9257c-0.2419-0.103-0.4463-0.1006-0.6865,0.0016C12.5647,4.0686,9.458,5.3807,6.3522,6.695
		C5.4866,7.0613,4.6212,7.4282,3.7446,7.7995z"/>
</g>
</svg>
